<?xml version="1.0" encoding="UTF-8"?>
<!DOCTYPE svg PUBLIC "-//W3C//DTD SVG 1.1//EN" "http://www.w3.org/Graphics/SVG/1.1/DTD/svg11.dtd">
<!-- Creator: CorelDRAW -->
<svg xmlns="http://www.w3.org/2000/svg" xml:space="preserve" width="39.1848mm" height="144.026mm" version="1.1" style="shape-rendering:geometricPrecision; text-rendering:geometricPrecision; image-rendering:optimizeQuality; fill-rule:evenodd; clip-rule:evenodd"
viewBox="0 0 3918.48 14402.59"
 xmlns:xlink="http://www.w3.org/1999/xlink"
 xmlns:xodm="http://www.corel.com/coreldraw/odm/2003">
 <defs>
  <style type="text/css">
   <![CDATA[
    .fil0 {fill:white;fill-rule:nonzero}
   ]]>
  </style>
 </defs>
 <g id="Capa_x0020_1">
  <metadata id="CorelCorpID_0Corel-Layer"/>
  <g id="_2425333236928">
   <g>
    <path class="fil0" d="M2182.55 763.59l0 1155.44 445.82 162.72 0 604.83 -2586.04 -1000.13 0.01 -690.03 2586.04 -996.42 -0.01 600.87 -445.82 162.72zm-476.78 1008.06l0 -856.72 -1186.39 426.51 1186.39 430.21z"/>
    <g>
     <path class="fil0" d="M557.21 3380.32l2071.16 0 0 -550.6 -2292.61 0c78.84,181.51 152.13,365.13 221.45,550.6z"/>
     <path class="fil0" d="M228.6 2829.99l-186 0 0 550.59 403.49 0c-68,-185.73 -140.23,-369.35 -217.49,-550.59z"/>
    </g>
    <g>
     <path class="fil0" d="M591.61 3799.16l-549.01 0 0 775.49 867.57 337.87c-93.13,-374.38 -198.17,-746.65 -318.56,-1113.36z"/>
     <path class="fil0" d="M1159.94 6051.82l-392.38 0 364.86 -142.88c-30.96,-154.78 -63.24,-309.83 -97.37,-464.61l-992.45 386.3 0 771.52 1217.35 0c-31.22,-183.88 -64.56,-367.51 -100.01,-550.33z"/>
     <path class="fil0" d="M878.42 4353.72l1750.22 0 0 -554.3 -1922.73 0c61.38,183.36 118.53,368.3 172.51,554.3z"/>
     <path class="fil0" d="M1386.42 6602.15l1242.22 0 0 -550.6 -1344.08 0c35.71,183.09 70.11,366.72 101.86,550.6z"/>
     <path class="fil0" d="M1043.25 4964.38l611.99 238.39 -508.53 197.91c34.93,154.52 68.26,309.03 99.75,463.29l1381.92 -541.07 -0.01 -240.52 -1735.93 -679.98c53.45,186.54 103.72,373.86 150.81,561.98z"/>
    </g>
    <g>
     <path class="fil0" d="M1481.14 8322.74c-35.45,-406.93 -83.34,-812.8 -142.08,-1216.82 -166.42,197.38 -234.95,491.6 -292.36,744.8 -69.85,298.45 -124.09,515.67 -298.45,515.67 -155.05,0 -263.53,-131.76 -263.53,-379.94 0,-251.88 89.16,-531.02 283.1,-740.57l-403.23 -306.39c-236.54,255.85 -360.63,597.16 -360.63,1008.06 0,608.81 348.99,980.81 779.2,980.81 419.64,0.01 595.85,-286.54 697.98,-605.62z"/>
     <path class="fil0" d="M1576.39 7952.32c68.79,-293.16 135.47,-512.5 327.03,-512.5 147.37,0 290.78,147.37 290.78,449.79 0,356.66 -159.01,639.76 -348.99,821.8l418.84 302.42c244.21,-244.21 410.9,-600.87 410.9,-1097.23 0,-697.97 -356.66,-1035.05 -829.73,-1035.05 -165.1,0 -293.16,44.98 -394.23,119.33 48.67,315.91 90.74,633.15 125.4,951.44z"/>
    </g>
    <g>
     <path class="fil0" d="M1511.04 11252.47c-55.83,9.26 -113.77,14.02 -173.57,14.02 -484.72,0 -849.05,-306.39 -849.05,-783.17 0,-476.78 364.33,-787.14 849.05,-787.14 74.88,0 146.84,7.41 215.37,21.96 -2.91,-191.82 -8.73,-383.38 -17.46,-575.2 -64.29,-8.47 -130.18,-12.96 -197.91,-12.96 -779.2,0 -1337.47,569.91 -1337.47,1353.08 0,779.2 558.27,1349.11 1337.47,1349.11 41.28,0 81.76,-1.85 121.97,-5.03 20.64,-191.56 37.84,-383.38 51.6,-574.67z"/>
     <path class="fil0" d="M1692.54 9759.69c295.54,113.77 493.98,373.59 493.98,723.64 0,363.27 -213.78,627.33 -528.11,732.63 -12.7,196.85 -28.58,394.23 -48.42,592.14 633.41,-116.68 1064.95,-639.76 1064.95,-1324.5 0,-665.43 -402.96,-1176.6 -1001.98,-1315.24 9.53,196.57 16.41,393.95 19.58,591.33z"/>
    </g>
    <g>
     <path class="fil0" d="M1080.82 13803.05c-352.95,-96.57 -592.4,-390.79 -592.4,-757.24 0,-286.81 166.69,-519.38 375.97,-628.12l-232.57 -473.08c-321.73,182.57 -631.82,511.98 -631.82,1101.2 0,609.34 352.69,1117.6 905.67,1292.23 64.03,-176.21 122.5,-354.54 175.15,-534.99z"/>
     <path class="fil0" d="M2186.52 13045.81c0,449.79 -360.63,790.84 -849.05,790.84 -33.6,0 -66.68,-1.85 -98.95,-5.03 -52.65,183.89 -110.86,365.92 -175.68,545.57 87.58,16.67 179.39,25.4 274.64,25.4 794.81,0 1337.47,-600.87 1337.47,-1357.05 0,-589.23 -314.06,-914.93 -635.79,-1100.93l-228.61 473.35c212.99,108.48 375.97,341.05 375.97,627.85z"/>
    </g>
   </g>
   <g>
    <path class="fil0" d="M3209.4 13288.97l0 -286.02c0,-116.95 67.73,-192.09 177.27,-192.09 87.58,0 147.11,59.53 159.54,121.97 11.38,-74.08 88.64,-135.73 171.19,-135.73 115.89,0 187.85,75.14 187.85,199.23l0 292.64 -695.85 0zm312.21 -278.61c0,-89.69 -56.36,-136.79 -128.32,-136.79 -70.91,0 -129.38,46.83 -129.38,136.79l-0.01 219.07 257.7 0 0.01 -219.07zm329.67 -4.23c0,-91.81 -53.18,-146.05 -137.85,-146.05 -70.91,0 -137.85,48.95 -137.85,146.05l0 223.3 275.43 0 0 -223.3 0.27 0z"/>
    <polygon class="fil0" points="3608.12,12390.18 3209.39,12666.67 3209.4,12594.7 3551.77,12360.01 3209.4,12125.32 3209.4,12053.36 3608.13,12329.85 3905.52,12329.85 3905.52,12390.44 3608.12,12390.44 "/>
    <polygon class="fil0" points="3209.4,11513.61 3209.4,11454.08 3851.28,11454.08 3851.28,11117 3905.52,11117 3905.52,11513.61 "/>
    <path class="fil0" d="M3209.4 10934.17l0 -60.59 427.83 0c140.76,0 226.48,-74.08 226.48,-210.87 0,-137.85 -85.46,-210.87 -226.48,-210.87l-427.83 0 0 -60.59 428.89 0c172.24,0 279.66,91.81 279.66,271.46 0,178.33 -108.48,271.2 -279.66,271.2l-428.89 0 0 0.26z"/>
    <path class="fil0" d="M3558.12 10160.8c-214.05,0 -360.1,-155.58 -360.1,-350.57 0,-112.71 48.95,-196.32 123.03,-255.59l32.28 50.01c-60.59,43.92 -101.34,120.12 -101.34,205.58 0,161.66 124.09,288.13 305.86,288.13 179.39,0 305.86,-126.21 305.86,-288.13 0,-85.46 -40.75,-161.66 -101.34,-205.58l31.22 -50.01c76.2,61.65 124.09,142.88 124.09,255.59 0.27,194.99 -145.78,350.57 -359.56,350.57z"/>
    <polygon class="fil0" points="3209.4,9349.85 3209.4,9290.32 3905.52,9290.32 3905.52,9349.85 "/>
    <path class="fil0" d="M3734.33 8597.37l0 370.42 171.19 69.85 0 66.68 -696.12 -284.96 0 -74.08 696.12 -284.96 0 66.67 -171.19 70.38zm-54.24 351.64l0 -332.85 -412.22 166.95 412.22 165.9z"/>
    <polygon class="fil0" points="3304.38,8215.32 3905.51,8215.32 3905.52,8274.85 3209.4,8274.85 3209.4,8214.26 3802.07,7777.96 3209.4,7777.96 3209.4,7718.43 3905.52,7718.43 3905.52,7776.9 "/>
    <path class="fil0" d="M3734.33 7025.48l0 370.42 171.19 69.85 0 66.68 -696.12 -284.96 0 -74.08 696.12 -284.96 0 66.68 -171.19 70.37zm-54.24 351.64l0 -332.85 -412.22 166.95 412.22 165.9z"/>
    <path class="fil0" d="M3762.64 6348.94c52.12,-44.98 101.34,-118 101.34,-216.96 0,-142.88 -79.38,-183.62 -138.91,-183.62 -98.16,0 -125.15,92.87 -151.34,191.03 -30.16,109.54 -61.65,226.48 -189.97,226.48 -113.77,0 -185.74,-102.39 -185.74,-228.6 0,-104.25 36.51,-181.5 98.16,-235.74l43.92 39.69c-60.59,50.01 -87.58,120.91 -87.58,199.23 0,92.87 53.18,162.72 128.32,162.72 82.55,0 106.36,-86.52 131.5,-181.5 32.28,-112.71 67.73,-235.74 208.76,-235.74 89.69,0 197.38,59.53 197.38,247.39 0,114.83 -46.04,201.35 -110.6,254.53l-45.24 -38.91z"/>
    <path class="fil0" d="M3734.33 5233.46l0 370.42 171.19 69.85 0 66.67 -696.12 -284.96 0 -74.08 696.12 -284.96 0 66.68 -171.19 70.38zm-54.24 351.63l0 -332.84 -412.22 166.95 412.22 165.89z"/>
    <polygon class="fil0" points="3209.4,4910.67 3209.4,4851.14 3851.28,4851.14 3851.28,4514.06 3905.52,4514.06 3905.52,4910.67 "/>
    <path class="fil0" d="M3198.02 4027.76c0,-203.46 156.63,-338.14 360.1,-338.14 203.46,0 360.1,134.67 360.1,338.14 0,204.52 -156.63,338.14 -360.1,338.14 -203.73,-0.01 -360.1,-133.62 -360.1,-338.14zm54.24 0c0,169.07 128.32,275.43 305.86,275.43 175.42,0 305.86,-106.36 305.86,-275.43 0,-166.95 -130.44,-275.43 -305.86,-275.43 -177.54,-0.01 -305.86,108.47 -305.86,275.43z"/>
    <polygon class="fil0" points="3287.71,2868.35 3905.51,3121.82 3905.52,3144.84 3287.72,3399.37 3905.52,3399.37 3905.52,3458.9 3209.4,3458.9 3209.4,3370.27 3786.46,3133.47 3209.4,2897.73 3209.4,2808.03 3905.52,2808.03 3905.52,2868.62 3287.71,2868.62 "/>
    <path class="fil0" d="M3198.02 2238.91c0,-203.46 156.63,-338.14 360.1,-338.14 203.46,0 360.1,134.67 360.1,338.14 0,204.52 -156.63,338.14 -360.1,338.14 -203.73,-0.01 -360.1,-133.62 -360.1,-338.14zm54.24 0c0,169.07 128.32,275.43 305.86,275.43 175.42,0 305.86,-106.36 305.86,-275.43 0,-166.95 -130.44,-275.43 -305.86,-275.43 -177.54,-0.27 -305.86,108.48 -305.86,275.43zm-101.34 24.87l-150.28 -160.6 0 -64.83 150.28 179.39 0 46.04z"/>
    <polygon class="fil0" points="3304.38,1610.52 3905.51,1610.52 3905.52,1670.05 3209.4,1670.05 3209.4,1609.46 3802.07,1173.16 3209.4,1173.16 3209.4,1113.63 3905.52,1113.63 3905.52,1172.11 "/>
   </g>
  </g>
 </g>
</svg>
