<?xml version="1.0" encoding="UTF-8" standalone="no"?><!DOCTYPE svg PUBLIC "-//W3C//DTD SVG 1.1//EN" "http://www.w3.org/Graphics/SVG/1.1/DTD/svg11.dtd"><svg width="100%" height="100%" viewBox="0 0 840 241" version="1.1" xmlns="http://www.w3.org/2000/svg" xmlns:xlink="http://www.w3.org/1999/xlink" xml:space="preserve" xmlns:serif="http://www.serif.com/" style="fill-rule:evenodd;clip-rule:evenodd;stroke-linecap:round;stroke-linejoin:round;stroke-miterlimit:1.5;"><g transform="matrix(1,0,0,1,-295.276,-2414.92)"><g transform="matrix(0.461486,0,0,0.461486,144.186,1536.73)"><g transform="matrix(1,0,0,1,-71.9025,1310.01)"><path d="M710.582,852.602C680.688,899.53 628.217,930.681 568.533,930.681C475.627,930.681 400.199,855.198 400.199,762.224C400.199,750.713 401.355,739.47 403.558,728.605C418.979,733.28 455.677,747.198 471.356,750.96C470.985,754.763 470.794,758.626 470.794,762.537C470.794,822.151 515.061,870.551 569.585,870.551C603.866,870.551 634.091,851.418 651.81,822.396L710.582,852.602ZM652.306,703.497C634.658,674.016 604.187,654.523 569.585,654.523C525.247,654.523 487.692,686.527 475.208,730.542L409.418,707.142C432.243,641.183 494.899,593.768 568.533,593.768C628.939,593.768 681.956,625.677 711.657,673.556L652.306,703.497Z" style="fill:rgb(17,17,17);"/></g><g transform="matrix(1.07622,0,0,0.991521,-85.3873,849.5)"><path d="M686.593,1247.58C686.22,1242.83 686.03,1238.03 686.03,1233.17C686.03,1139.46 757.132,1063.37 844.709,1063.37C932.287,1063.37 1003.39,1139.46 1003.39,1233.17C1003.39,1241.92 1002.77,1250.5 1001.58,1258.89C980.072,1260.2 957.263,1260.79 934.104,1260.86C936.034,1251.95 937.062,1242.61 937.062,1232.98C937.062,1171.9 895.707,1122.32 844.77,1122.32C793.833,1122.32 752.479,1171.9 752.479,1232.98C752.479,1239.98 753.022,1246.83 754.06,1253.47C722.768,1251.1 698.551,1248.78 686.593,1247.58ZM997.754,1278.15C979.314,1350.07 917.74,1402.98 844.709,1402.98C769.027,1402.98 705.649,1346.16 689.828,1270.24C706.844,1271.76 731.228,1272.99 759.031,1273.99C772.629,1314.79 805.911,1343.65 844.77,1343.65C882.487,1343.65 914.95,1316.46 929.26,1277.55C959.724,1277.9 984.594,1278.07 997.754,1278.15Z" style="fill:rgb(17,17,17);"/></g><g transform="matrix(1,0,0,1,-7.94189,836.614)"><path d="M1239.44,1162.13L1277.18,1112.31C1277.18,1112.31 1228.8,1065.86 1153.82,1066.35C1078.83,1066.83 1026.58,1111.82 1028.03,1164.55C1029.48,1217.29 1060.45,1240.02 1099.15,1252.6C1129.14,1250.67 1257.83,1235.18 1257.83,1235.18C1257.83,1235.18 1221.54,1210.51 1180.42,1202.29C1139.3,1194.06 1098.66,1189.23 1097.7,1159.71C1097.21,1131.66 1133.98,1126.82 1149.46,1126.82C1164.94,1126.82 1196.39,1128.75 1239.44,1162.13Z" style="fill:rgb(17,17,17);"/></g><g transform="matrix(1,0,0,1,-7.94189,836.614)"><path d="M1271.37,1249.21L1150.43,1264.69C1150.43,1264.69 1215.26,1275.82 1215.74,1306.3C1216.22,1336.78 1180.42,1342.58 1160.1,1343.55C1137.85,1342.58 1101.57,1345 1055.12,1299.53C1041.09,1318.39 1017.39,1351.78 1017.39,1351.78C1017.39,1351.78 1056.09,1403.54 1159.62,1403.54C1178.97,1404.02 1278.63,1397.74 1284.43,1304.85C1284.92,1282.6 1277.66,1261.79 1271.37,1249.21Z" style="fill:rgb(17,17,17);"/></g><g transform="matrix(1,0,0,1,-7.94189,836.614)"><path d="M1319.75,1071.18L1319.75,1224.87C1319.75,1224.87 1372.48,1215.99 1388.93,1213.09C1387.96,1191.32 1388.93,1163.74 1388.93,1163.74L1408.28,1208.58L1467.3,1196.97L1417.96,1071.18L1319.75,1071.18Z" style="fill:rgb(17,17,17);stroke:rgb(53,30,30);stroke-width:2.17px;"/></g><g transform="matrix(1,0,0,1,-7.94189,836.614)"><path d="M1673.88,1070.7L1673.88,1139.88C1673.88,1139.88 1585.35,1168.91 1533.58,1180.52C1546.16,1149.56 1576.15,1070.7 1576.15,1070.7L1673.88,1070.7Z" style="fill:rgb(17,17,17);stroke:rgb(53,30,30);stroke-width:2.17px;"/></g><g transform="matrix(1,0,0,1,-7.94189,836.614)"><path d="M1319.75,1398.7L1319.75,1241.61C1319.75,1241.61 1377.32,1231.16 1388.93,1228.26C1388.45,1251.96 1388.93,1398.7 1388.93,1398.7L1319.75,1398.7Z" style="fill:rgb(17,17,17);stroke:rgb(53,30,30);stroke-width:2.17px;"/></g><g transform="matrix(1,0,0,1,-7.94189,836.614)"><path d="M1481.33,1398.7L1413.61,1222.61C1413.61,1222.61 1462.47,1213.9 1473.11,1211C1481.82,1235.18 1496.82,1275.82 1496.82,1275.82L1527.78,1197.93C1527.78,1197.93 1588.25,1182.94 1598.41,1179.07C1585.35,1212.93 1511.33,1398.7 1511.33,1398.7L1481.33,1398.7Z" style="fill:rgb(17,17,17);stroke:rgb(53,30,30);stroke-width:2.17px;"/></g><g transform="matrix(1,0,0,1,-7.94189,836.614)"><path d="M1605.18,1176.65L1605.18,1398.22L1674.36,1398.22L1674.36,1154.88L1605.18,1176.65Z" style="fill:rgb(17,17,17);stroke:rgb(53,30,30);stroke-width:2.17px;"/></g><g transform="matrix(1,0,0,1,-7.94189,836.614)"><path d="M1726.86,1071.18L1726.86,1120.71L1795.83,1094.59L1795.83,1071.18L1726.86,1071.18Z" style="fill:rgb(17,17,17);stroke:rgb(53,30,30);stroke-width:2.17px;"/></g><g transform="matrix(1,0,0,1,-7.94189,836.614)"><path d="M1726.86,1398.7L1726.86,1136.39L1795.83,1109.22L1795.83,1398.22L1726.86,1398.7Z" style="fill:rgb(17,17,17);stroke:rgb(53,30,30);stroke-width:2.17px;"/></g><g transform="matrix(1,0,0,1,-7.94189,836.614)"><path d="M1813.94,1398.22L1939.14,1071.18L2027.33,1071.18L2153.07,1398.22L2076.95,1398.22L2057.6,1338.17L1911.83,1338.17L1889.89,1398.22L1813.94,1398.22ZM1982.82,1132.61L1928.03,1282.34L2037.61,1282.34L1982.82,1132.61Z" style="fill:rgb(17,17,17);stroke:rgb(53,30,30);stroke-width:2.17px;"/></g></g><g transform="matrix(0.285144,0,0,0.285144,193.507,1888.33)"><g transform="matrix(283.225,0,0,283.225,328.296,2688.04)"><path d="M0.698,-0.66L0.698,-0L0.671,-0L0.671,-0.549L0.673,-0.628L0.414,-0L0.385,-0L0.126,-0.628L0.125,-0.628L0.128,-0.549L0.128,-0L0.101,-0L0.101,-0.66L0.141,-0.66L0.38,-0.088L0.399,-0.033L0.4,-0.033L0.419,-0.087L0.658,-0.66L0.698,-0.66Z" style="fill:rgb(17,17,17);fill-rule:nonzero;"/></g><g transform="matrix(283.225,0,0,283.225,611.805,2688.04)"><path d="M0.585,-0L0.556,-0L0.464,-0.224L0.136,-0.224L0.044,-0L0.015,-0L0.284,-0.66L0.316,-0.66L0.585,-0ZM0.146,-0.25L0.453,-0.25L0.3,-0.631L0.146,-0.25Z" style="fill:rgb(17,17,17);fill-rule:nonzero;"/></g><g transform="matrix(283.225,0,0,283.225,838.951,2688.04)"><path d="M0.551,-0.66L0.283,-0.386L0.279,-0.382L0.114,-0.215L0.114,-0.254L0.513,-0.66L0.551,-0.66ZM0.129,-0.66L0.129,-0L0.101,-0L0.101,-0.66L0.129,-0.66ZM0.284,-0.406L0.56,-0L0.525,-0L0.263,-0.386L0.284,-0.406Z" style="fill:rgb(17,17,17);fill-rule:nonzero;"/></g><g transform="matrix(283.225,0,0,283.225,1059.3,2688.04)"><path d="M0.101,-0L0.101,-0.66L0.543,-0.66L0.543,-0.635L0.129,-0.635L0.129,-0.349L0.459,-0.349L0.459,-0.324L0.129,-0.324L0.129,-0.025L0.559,-0.025L0.559,-0L0.101,-0Z" style="fill:rgb(17,17,17);fill-rule:nonzero;"/></g><g transform="matrix(283.225,0,0,283.225,1270.3,2688.04)"><rect x="0.072" y="-0.283" width="0.29" height="0.029" style="fill:rgb(17,17,17);fill-rule:nonzero;"/></g><g transform="matrix(283.225,0,0,283.225,1450.43,2688.04)"><path d="M0.587,-0.66L0.587,-0.237C0.587,-0.157 0.565,-0.096 0.521,-0.054C0.477,-0.011 0.415,0.01 0.336,0.01C0.257,0.01 0.196,-0.011 0.152,-0.054C0.107,-0.096 0.085,-0.157 0.085,-0.237L0.085,-0.66L0.113,-0.66L0.113,-0.241C0.113,-0.168 0.133,-0.113 0.172,-0.074C0.211,-0.035 0.265,-0.015 0.336,-0.015C0.407,-0.015 0.462,-0.035 0.501,-0.074C0.54,-0.113 0.559,-0.168 0.559,-0.241L0.559,-0.66L0.587,-0.66Z" style="fill:rgb(17,17,17);fill-rule:nonzero;"/></g><g transform="matrix(283.225,0,0,283.225,1697.97,2688.04)"><path d="M0.31,-0.66C0.357,-0.66 0.397,-0.653 0.43,-0.637C0.463,-0.623 0.489,-0.601 0.507,-0.573C0.526,-0.545 0.535,-0.511 0.535,-0.472C0.535,-0.433 0.526,-0.399 0.507,-0.372C0.489,-0.344 0.463,-0.323 0.43,-0.308C0.397,-0.293 0.357,-0.285 0.31,-0.285L0.129,-0.285L0.129,-0L0.101,-0L0.101,-0.66L0.31,-0.66ZM0.308,-0.31C0.371,-0.31 0.419,-0.324 0.454,-0.353C0.489,-0.382 0.506,-0.421 0.506,-0.472C0.506,-0.523 0.489,-0.563 0.454,-0.592C0.419,-0.621 0.371,-0.635 0.308,-0.635L0.129,-0.635L0.129,-0.31L0.308,-0.31Z" style="fill:rgb(17,17,17);fill-rule:nonzero;"/></g><g transform="matrix(283.225,0,0,283.225,2049.74,2688.04)"><path d="M0.3,-0.67C0.361,-0.67 0.413,-0.658 0.455,-0.633C0.496,-0.609 0.526,-0.571 0.543,-0.519L0.52,-0.502C0.505,-0.551 0.478,-0.588 0.441,-0.611C0.403,-0.633 0.355,-0.645 0.298,-0.645C0.256,-0.645 0.22,-0.638 0.189,-0.624C0.158,-0.61 0.135,-0.592 0.118,-0.569C0.101,-0.546 0.093,-0.52 0.093,-0.491C0.093,-0.455 0.105,-0.426 0.129,-0.404C0.153,-0.381 0.195,-0.364 0.255,-0.351L0.375,-0.326C0.44,-0.312 0.487,-0.293 0.514,-0.268C0.541,-0.243 0.554,-0.211 0.554,-0.17C0.554,-0.134 0.544,-0.102 0.524,-0.076C0.503,-0.049 0.475,-0.028 0.439,-0.013C0.403,0.002 0.361,0.01 0.312,0.01C0.266,0.01 0.224,0.004 0.187,-0.009C0.15,-0.022 0.118,-0.041 0.094,-0.066C0.069,-0.091 0.051,-0.123 0.042,-0.16L0.068,-0.178C0.075,-0.141 0.09,-0.111 0.113,-0.087C0.136,-0.063 0.164,-0.045 0.199,-0.033C0.233,-0.021 0.271,-0.015 0.313,-0.015C0.353,-0.015 0.389,-0.021 0.421,-0.033C0.453,-0.044 0.478,-0.062 0.498,-0.085C0.517,-0.108 0.526,-0.135 0.526,-0.168C0.526,-0.201 0.514,-0.228 0.49,-0.249C0.466,-0.27 0.425,-0.287 0.367,-0.298L0.245,-0.325C0.202,-0.334 0.167,-0.346 0.141,-0.361C0.114,-0.376 0.095,-0.394 0.083,-0.414C0.07,-0.436 0.064,-0.46 0.064,-0.489C0.064,-0.521 0.074,-0.551 0.093,-0.578C0.112,-0.605 0.139,-0.627 0.173,-0.645C0.209,-0.662 0.251,-0.67 0.3,-0.67Z" style="fill:rgb(17,17,17);fill-rule:nonzero;"/></g><g transform="matrix(283.225,0,0,283.225,2269.24,2688.04)"><path d="M0.54,-0.66L0.54,-0.635L0.292,-0.635L0.292,-0L0.264,-0L0.264,-0.635L0.015,-0.635L0.015,-0.66L0.54,-0.66Z" style="fill:rgb(17,17,17);fill-rule:nonzero;"/></g><g transform="matrix(283.225,0,0,283.225,2483.64,2688.04)"><path d="M0.587,-0.66L0.587,-0.237C0.587,-0.157 0.565,-0.096 0.521,-0.054C0.477,-0.011 0.415,0.01 0.336,0.01C0.257,0.01 0.196,-0.011 0.152,-0.054C0.107,-0.096 0.085,-0.157 0.085,-0.237L0.085,-0.66L0.113,-0.66L0.113,-0.241C0.113,-0.168 0.133,-0.113 0.172,-0.074C0.211,-0.035 0.265,-0.015 0.336,-0.015C0.407,-0.015 0.462,-0.035 0.501,-0.074C0.54,-0.113 0.559,-0.168 0.559,-0.241L0.559,-0.66L0.587,-0.66Z" style="fill:rgb(17,17,17);fill-rule:nonzero;"/></g><g transform="matrix(283.225,0,0,283.225,2731.18,2688.04)"><path d="M0.306,-0.66C0.412,-0.66 0.493,-0.633 0.549,-0.578C0.604,-0.523 0.632,-0.443 0.632,-0.338C0.632,-0.228 0.604,-0.144 0.549,-0.086C0.493,-0.029 0.412,-0 0.306,-0L0.101,-0L0.101,-0.66L0.306,-0.66ZM0.307,-0.025C0.404,-0.025 0.477,-0.052 0.528,-0.106C0.578,-0.159 0.603,-0.237 0.603,-0.338C0.603,-0.435 0.578,-0.508 0.528,-0.559C0.477,-0.61 0.404,-0.635 0.307,-0.635L0.129,-0.635L0.129,-0.025L0.307,-0.025Z" style="fill:rgb(17,17,17);fill-rule:nonzero;"/></g><g transform="matrix(283.225,0,0,283.225,2983.81,2688.04)"><rect x="0.101" y="-0.66" width="0.028" height="0.66" style="fill:rgb(17,17,17);fill-rule:nonzero;"/></g><g transform="matrix(283.225,0,0,283.225,3105.88,2688.04)"><path d="M0.36,-0.67C0.422,-0.67 0.476,-0.656 0.521,-0.628C0.566,-0.601 0.601,-0.562 0.625,-0.511C0.65,-0.46 0.662,-0.4 0.662,-0.33C0.662,-0.26 0.65,-0.2 0.625,-0.149C0.601,-0.098 0.566,-0.059 0.521,-0.032C0.476,-0.004 0.422,0.01 0.36,0.01C0.299,0.01 0.245,-0.004 0.2,-0.032C0.155,-0.059 0.12,-0.098 0.095,-0.149C0.07,-0.2 0.058,-0.26 0.058,-0.33C0.058,-0.4 0.07,-0.46 0.095,-0.511C0.12,-0.562 0.155,-0.601 0.2,-0.628C0.245,-0.656 0.299,-0.67 0.36,-0.67ZM0.36,-0.645C0.305,-0.645 0.257,-0.632 0.216,-0.607C0.174,-0.581 0.143,-0.545 0.121,-0.498C0.098,-0.451 0.087,-0.395 0.087,-0.33C0.087,-0.265 0.098,-0.21 0.121,-0.163C0.143,-0.116 0.174,-0.079 0.216,-0.054C0.257,-0.028 0.305,-0.015 0.36,-0.015C0.417,-0.015 0.465,-0.028 0.505,-0.054C0.546,-0.079 0.577,-0.116 0.6,-0.163C0.622,-0.21 0.633,-0.265 0.633,-0.33C0.633,-0.395 0.622,-0.451 0.6,-0.498C0.577,-0.545 0.546,-0.581 0.505,-0.607C0.465,-0.632 0.417,-0.645 0.36,-0.645Z" style="fill:rgb(17,17,17);fill-rule:nonzero;"/></g></g></g></svg>