<?xml version="1.0" encoding="UTF-8"?>
<!DOCTYPE svg PUBLIC "-//W3C//DTD SVG 1.1//EN" "http://www.w3.org/Graphics/SVG/1.1/DTD/svg11.dtd">
<!-- Creator: CorelDRAW -->
<svg xmlns="http://www.w3.org/2000/svg" xml:space="preserve" width="138.996mm" height="40.6733mm" version="1.1" style="shape-rendering:geometricPrecision; text-rendering:geometricPrecision; image-rendering:optimizeQuality; fill-rule:evenodd; clip-rule:evenodd"
viewBox="0 0 12455.41 3644.73"
 xmlns:xlink="http://www.w3.org/1999/xlink"
 xmlns:xodm="http://www.corel.com/coreldraw/odm/2003">
 <defs>
  <style type="text/css">
   <![CDATA[
    .fil0 {fill:black}
    .fil1 {fill:black;fill-rule:nonzero}
   ]]>
  </style>
 </defs>
 <g id="Capa_x0020_1">
  <metadata id="CorelCorpID_0Corel-Layer"/>
  <g id="_1990792631872">
   <path class="fil0" d="M6171.32 664.1l274.62 -354.72c-226.61,-207.87 -523.5,-294.33 -861.99,-308.95 -476.72,-13.12 -856.24,275.57 -858.19,682.74 10.38,294.54 228.08,565.22 526.36,595.01l1052.7 -118.24c-156.33,-121.15 -376.37,-201.78 -644.59,-251.73 -256.79,-53.79 -450.12,-122.93 -450.07,-263.18 12.3,-144.86 150.42,-227.65 324.2,-228.85 242.94,6.11 455.07,89.24 636.97,247.92z"/>
   <path class="fil0" d="M6026.38 1636.71c-14.68,-139.62 -194.73,-210.14 -423.37,-278.44l804.79 -106.8c70.94,140.24 105.78,289.5 95.35,450.07 -11.3,371.33 -426.55,605.54 -858.19,621.7 -452.7,1.36 -752.66,-150.02 -991.69,-362.35l251.74 -362.34c185.16,169 422.52,301.43 743.76,312.76 228.08,-17.1 352.94,-104.94 377.6,-274.62z"/>
   <polygon class="fil0" points="7405.69,34.95 6738.96,43.72 6738.96,1087.66 7212.69,1004.33 7212.69,670.96 7339.89,991.17 7747.82,899.06 "/>
   <polygon class="fil0" points="6730.19,2276.35 6738.96,1206.1 7221.47,1113.98 7217.07,2276.35 "/>
   <polygon class="fil0" points="7839.93,2271.97 7379.37,1083.28 7782.91,991.17 7953.97,1442.95 8160.13,899.06 8642.62,767.46 8054.86,2276.35 "/>
   <polygon class="fil0" points="9164.6,508.67 8199.61,785.01 8493.49,43.72 9164.6,43.72 "/>
   <polygon class="fil0" points="8686.49,763.08 9155.83,627.1 9155.83,2280.74 8686.49,2280.74 "/>
   <polygon class="fil0" points="10002.37,43.72 9519.89,48.11 9528.66,377.08 10002.37,197.25 "/>
   <polygon class="fil0" points="10002.37,293.74 9528.66,477.97 9528.66,2271.97 10002.37,2271.97 "/>
   <path class="fil0" d="M10114.63 2267.34l872.84 -2231.67 605.03 0 862.92 2241.59 -515.76 0 -138.87 -391.78 -1006.73 0 -138.86 381.86 -540.56 0zm1562.18 -783.57l-396.75 -1026.57 -366.99 1026.57 763.74 0z"/>
   <path class="fil0" d="M61.92 787.39l467.7 159.02c82.12,-300.54 330.54,-518.99 624.23,-518.99 224.89,0 423.22,128.07 540.68,323l427.83 -204.81c-203.81,-323.05 -563.14,-537.55 -972.4,-537.55 -504.47,0 -933.07,325.92 -1088.04,779.34z"/>
   <path class="fil0" d="M505.47 1075.01l-482.32 -144.69c-15.18,74.81 -23.16,152.23 -23.16,231.53 0,637.21 514.85,1153.78 1149.96,1153.78 413.84,0 776.61,-219.31 979.17,-548.42l-425.8 -206.32c-116.2,203.33 -318.88,337.99 -549.48,337.99 -360.65,0 -653.02,-329.4 -653.02,-735.72 0,-29.83 1.58,-59.25 4.64,-88.15z"/>
   <path class="fil0" d="M2700.43 1161.84c0,-407.6 306.52,-738.04 684.64,-738.04 378.12,0 684.65,330.44 684.65,738.04 0,57.29 -6.05,113.04 -17.51,166.58l493.66 7.31c7.95,-54.29 12.06,-109.8 12.06,-166.25 0,-637.22 -524.25,-1153.78 -1170.96,-1153.78 -646.69,0 -1170.94,516.57 -1170.94,1153.78 0,27.64 0.99,55.07 2.93,82.24l493.83 50.46c-8.11,-45.43 -12.36,-92.34 -12.36,-140.33z"/>
   <path class="fil0" d="M3385.07 1899.88c-291.86,0 -541.06,-196.86 -639.56,-474.13l-505.23 -21.6c110.03,524.68 581.61,919.09 1146.69,919.09 550.55,0 1012.34,-374.36 1137.51,-878.83l-513.61 17.24c-106.62,258.2 -346.7,438.22 -625.8,438.22z"/>
  </g>
  <path class="fil1" d="M720.02 2850.92l0 781.96 -32.55 0 0 -650.45 2.41 -93.6 0 0 -312.28 744.05 -34.97 0 -312.29 -744.05 -1.21 0 3.62 93.6 0 650.45 -32.56 0 0 -781.96 48.24 0 288.16 677.7 22.92 65.16 1.2 0 22.9 -63.98 288.18 -678.88 48.22 0zm1079.29 781.96l-34.97 0 -110.93 -265.4 -395.48 0 -110.93 265.4 -34.97 0 324.35 -781.96 38.59 0 324.33 781.96zm-529.32 -296.2l370.16 0 -184.48 -451.41 -185.68 451.41zm1463.92 -485.77l-323.15 324.63 -4.81 4.74 -198.95 197.86 0 -46.2 481.09 -481.03 45.83 0zm-508.83 0l0 781.96 -33.76 0 0 -781.96 33.76 0zm186.9 300.94l332.78 481.03 -42.21 0 -315.9 -457.33 25.32 -23.69zm726 481.03l0 -781.96 532.93 0 0 29.62 -499.17 0 0 338.85 397.89 0 0 29.63 -397.89 0 0 354.25 518.47 0 0 29.62 -552.22 0zm4336.43 -793.81c73.95,0 136.05,14.41 186.29,43.25 50.24,28.83 85.8,74.04 106.71,135.65l-27.73 20.14c-18.49,-58.45 -50.44,-101.3 -95.86,-128.55 -45.42,-27.25 -102.69,-40.88 -171.82,-40.88 -50.64,0 -94.45,8.3 -131.42,24.88 -36.98,16.59 -65.51,38.51 -85.6,65.76 -20.1,27.25 -30.15,57.85 -30.15,91.81 0,42.65 14.47,77.22 43.41,103.67 28.94,26.46 79.58,47.2 151.92,62.21l144.68 29.62c78.79,16.59 134.45,39.49 167,68.72 32.56,29.22 48.84,67.92 48.84,116.11 0,42.65 -12.26,79.98 -36.78,111.97 -24.52,31.98 -58.48,56.87 -101.89,74.64 -43.41,17.78 -94.45,26.66 -153.13,26.66 -55.46,0 -105.7,-7.5 -150.71,-22.51 -45.02,-15.01 -82.59,-37.52 -112.75,-67.53 -30.14,-30.02 -50.84,-67.14 -62.09,-111.38l31.35 -21.33c8.03,43.44 25.92,79.39 53.65,107.82 27.73,28.43 62.31,49.76 103.7,63.98 41.4,14.21 87.41,21.33 138.05,21.33 48.24,0 91.64,-6.92 130.22,-20.74 38.58,-13.83 69.33,-34.36 92.24,-61.61 22.91,-27.25 34.37,-60.23 34.37,-98.93 0,-38.71 -14.46,-70.69 -43.41,-95.97 -28.94,-25.28 -78.37,-44.63 -148.3,-58.06l-147.11 -31.99c-52.24,-11.06 -94.24,-25.27 -126,-42.65 -31.74,-17.38 -55.05,-38.51 -69.92,-63.39 -14.88,-24.88 -22.31,-54.3 -22.31,-88.27 0,-37.91 11.46,-73.06 34.37,-105.44 22.9,-32.39 55.47,-58.65 97.67,-78.79 42.2,-20.14 93.04,-30.21 152.53,-30.21zm1232.41 11.85l0 29.62 -299.02 0 0 752.35 -33.77 0 0 -752.35 -300.22 0 0 -29.62 633 0zm978 0l0 501.17c0,94.78 -26.52,167.25 -79.57,217.4 -53.05,50.16 -127.41,75.24 -223.07,75.24 -94.84,0 -169,-25.07 -222.46,-75.24 -53.45,-50.15 -80.18,-122.62 -80.18,-217.4l0 -501.17 33.77 0 0 496.43c0,86.09 23.51,152.25 70.53,198.45 47.03,46.21 113.14,69.31 198.34,69.31 86.01,0 152.33,-23.1 198.95,-69.31 46.62,-46.2 69.92,-112.36 69.92,-198.45l0 -496.43 33.77 0zm723.59 0c127.81,0 225.28,32.39 292.4,97.16 67.12,64.76 100.68,159.55 100.68,284.35 0,130.33 -33.56,229.65 -100.68,297.97 -67.12,68.33 -164.59,102.49 -292.4,102.49l-247.17 0 0 -781.96 247.17 0zm1.22 752.35c116.56,0 205.17,-31.79 265.85,-95.38 60.68,-63.59 91.03,-155.4 91.03,-275.46 0,-114.53 -30.35,-201.81 -91.03,-261.84 -60.68,-60.03 -149.3,-90.05 -265.85,-90.05l-214.62 0 0 722.73 214.62 0zm869.48 -752.35l0 781.96 -33.77 0 0 -781.96 33.77 0zm806.78 -11.85c74.76,0 139.47,16.39 194.13,49.17 54.66,32.78 96.65,79.18 126,139.21 29.34,60.03 44.01,131.51 44.01,214.45 0,82.94 -14.67,154.42 -44.01,214.45 -29.35,60.03 -71.34,106.43 -126,139.21 -54.66,32.78 -119.37,49.17 -194.13,49.17 -73.95,0 -138.26,-16.39 -192.92,-49.17 -54.64,-32.78 -96.85,-79.18 -126.59,-139.21 -29.75,-60.03 -44.61,-131.51 -44.61,-214.45 0,-82.93 14.86,-154.42 44.61,-214.45 29.74,-60.03 71.95,-106.43 126.59,-139.21 54.66,-32.78 118.98,-49.17 192.92,-49.17zm0 29.62c-66.71,0 -124.78,15.21 -174.22,45.61 -49.44,30.41 -87.62,73.46 -114.55,129.15 -26.93,55.68 -40.4,121.83 -40.4,198.45 0,76.62 13.47,142.78 40.4,198.46 26.93,55.68 65.11,98.73 114.55,129.14 49.44,30.41 107.51,45.62 174.22,45.62 68.33,0 126.81,-15.21 175.44,-45.62 48.63,-30.4 86.41,-73.45 113.34,-129.14 26.93,-55.68 40.39,-121.84 40.39,-198.46 0,-76.62 -13.46,-142.77 -40.39,-198.45 -26.93,-55.68 -64.71,-98.73 -113.34,-129.15 -48.63,-30.4 -107.11,-45.61 -175.44,-45.61zm-7774.58 428.9l0 34.36 -349.67 0 0 -34.36 349.67 0zm914.09 -458.52l0 501.17c0,94.78 -26.52,167.25 -79.57,217.4 -53.05,50.16 -127.41,75.24 -223.06,75.24 -94.85,0 -169.01,-25.07 -222.46,-75.24 -53.46,-50.15 -80.19,-122.62 -80.19,-217.4l0 -501.17 33.77 0 0 496.43c0,86.09 23.5,152.25 70.52,198.45 47.03,46.21 113.15,69.31 198.35,69.31 86,0 152.32,-23.1 198.94,-69.31 46.62,-46.2 69.93,-112.36 69.93,-198.45l0 -496.43 33.76 0zm728.42 0c56.27,0 104.49,8.88 144.68,26.66 40.2,17.77 71.35,43.25 93.45,76.42 22.11,33.17 33.16,73.06 33.16,119.67 0,46.6 -11.06,86.29 -33.16,119.06 -22.1,32.78 -53.25,58.06 -93.45,75.83 -40.19,17.78 -88.42,26.66 -144.68,26.66l-218.24 0 0 337.67 -33.76 0 0 -781.96 251.99 0zm-2.41 414.68c75.56,0 134.24,-16.98 176.04,-50.95 41.79,-33.96 62.7,-80.95 62.7,-140.98 0,-60.83 -20.91,-108.21 -62.7,-142.18 -41.8,-33.97 -100.48,-50.95 -176.04,-50.95l-215.83 0 0 385.06 215.83 0z"/>
 </g>
</svg>
