<?xml version="1.0" encoding="UTF-8" standalone="no"?>
<!DOCTYPE svg PUBLIC "-//W3C//DTD SVG 1.1//EN" "http://www.w3.org/Graphics/SVG/1.1/DTD/svg11.dtd">
<svg width="100%" height="100%" viewBox="0 0 494 146" version="1.1" xmlns="http://www.w3.org/2000/svg" xmlns:xlink="http://www.w3.org/1999/xlink" xml:space="preserve" xmlns:serif="http://www.serif.com/" style="fill-rule:evenodd;clip-rule:evenodd;stroke-linejoin:round;stroke-miterlimit:2;">
    <g id="Layer-1" serif:id="Layer 1">
        <g transform="matrix(1,0,0,1,27.7011,145.105)">
            <path d="M0,-32.07L-11.828,-3.365L-23.656,-32.07L-26.108,-32.07L-26.108,0L-24.569,0L-24.569,-30.243L-12.068,0L-11.587,0L0.913,-30.243L0.913,0L2.452,0L2.452,-32.07L0,-32.07Z" style="fill:white;fill-rule:nonzero;"/>
        </g>
        <g transform="matrix(1,0,0,1,58.3767,145.105)">
            <path d="M0,-32.07L-13.367,0L-11.588,0L-8.03,-8.607L9.856,-8.607L13.414,0L15.193,0L1.827,-32.07L0,-32.07ZM0.913,-30.292L9.28,-10.05L-7.452,-10.05L0.913,-30.292Z" style="fill:white;fill-rule:nonzero;"/>
        </g>
        <g transform="matrix(1,0,0,1,106.649,145.105)">
            <path d="M0,-32.07L-16.684,-13.559L-16.684,-32.07L-18.222,-32.07L-18.222,0L-16.684,0L-16.684,-11.588L-12.837,-15.771L1.443,0L3.51,0L-11.876,-16.733L2.067,-32.07L0,-32.07Z" style="fill:white;fill-rule:nonzero;"/>
        </g>
        <g transform="matrix(1,0,0,1,125.497,145.105)">
            <path d="M0,-32.07L0,0L19.617,0L19.617,-1.443L1.539,-1.443L1.539,-15.771L19.281,-15.771L19.281,-17.214L1.539,-17.214L1.539,-30.627L19.617,-30.627L19.617,-32.07L0,-32.07Z" style="fill:white;fill-rule:nonzero;"/>
        </g>
        <g transform="matrix(1,0,0,1,0,121.256)">
            <rect x="159.154" y="11.492" width="11.54" height="1.442" style="fill:white;"/>
        </g>
        <g transform="matrix(1,0,0,1,185.982,145.682)">
            <path d="M0,-32.646L1.539,-32.646L1.539,-12.741C1.539,-5.625 5.193,-1.442 11.924,-1.442C18.655,-1.442 22.31,-5.625 22.31,-12.741L22.31,-32.646L23.848,-32.646L23.848,-12.741C23.848,-4.808 19.713,0 11.924,0C4.135,0 0,-4.856 0,-12.741L0,-32.646Z" style="fill:white;fill-rule:nonzero;"/>
        </g>
        <g transform="matrix(1,0,0,1,238.968,143.663)">
            <path d="M0,-29.185L-9.521,-29.185L-9.521,-13.896L0,-13.896C4.711,-13.896 7.74,-17.117 7.74,-21.54C7.74,-25.964 4.711,-29.185 0,-29.185M-11.059,-30.627L0.048,-30.627C6.01,-30.627 9.423,-26.445 9.423,-21.54C9.423,-16.636 5.913,-12.454 0.048,-12.454L-9.521,-12.454L-9.521,1.442L-11.059,1.442L-11.059,-30.627Z" style="fill:white;fill-rule:nonzero;"/>
        </g>
        <g transform="matrix(1,0,0,1,285.895,118.708)">
            <path d="M0,20.772C1.971,23.175 5.337,25.532 9.952,25.532C17.356,25.532 19.231,21.3 19.231,18.271C19.231,13.079 14.568,11.684 9.808,10.338C4.855,8.944 -0.241,7.549 -0.241,1.972C-0.241,-3.22 4.52,-6.202 9.808,-6.202C14.52,-6.202 17.934,-4.47 20.193,-1.682L18.991,-0.576C16.731,-3.509 13.51,-4.759 9.808,-4.759C5.145,-4.759 1.442,-1.97 1.442,1.972C1.442,6.299 5.77,7.501 10.337,8.799C15.481,10.29 20.914,11.924 20.914,18.271C20.914,21.877 18.606,26.974 9.952,26.974C4.952,26.974 1.058,24.81 -1.251,21.877L0,20.772Z" style="fill:white;fill-rule:nonzero;"/>
        </g>
        <g transform="matrix(1,0,0,1,332.004,143.663)">
            <path d="M0,-29.185L-10.818,-29.185L-10.818,-30.627L12.404,-30.627L12.404,-29.185L1.538,-29.185L1.538,1.442L0,1.442L0,-29.185Z" style="fill:white;fill-rule:nonzero;"/>
        </g>
        <g transform="matrix(1,0,0,1,360.083,145.682)">
            <path d="M0,-32.646L1.538,-32.646L1.538,-12.741C1.538,-5.625 5.192,-1.442 11.924,-1.442C18.655,-1.442 22.309,-5.625 22.309,-12.741L22.309,-32.646L23.848,-32.646L23.848,-12.741C23.848,-4.808 19.713,0 11.924,0C4.135,0 0,-4.856 0,-12.741L0,-32.646Z" style="fill:white;fill-rule:nonzero;"/>
        </g>
        <g transform="matrix(1,0,0,1,411.53,114.478)">
            <path d="M0,29.185C9.087,29.185 14.28,22.743 14.28,14.617C14.28,6.587 9.087,0 0,0L-7.981,0L-7.981,29.185L0,29.185ZM-9.52,-1.442L0,-1.442C9.953,-1.442 15.963,6.058 15.963,14.617C15.963,23.271 9.953,30.627 0,30.627L-9.52,30.627L-9.52,-1.442Z" style="fill:white;fill-rule:nonzero;"/>
        </g>
        <g transform="matrix(1,0,0,1,0,112.459)">
            <rect x="444.513" y="0.577" width="1.538" height="32.069" style="fill:white;"/>
        </g>
        <g transform="matrix(1,0,0,1,478.266,144.24)">
            <path d="M0,-30.291C-8.318,-30.291 -13.56,-23.944 -13.56,-15.145C-13.56,-6.443 -8.318,-0 0,-0C8.222,-0 13.559,-6.443 13.559,-15.145C13.559,-23.944 8.222,-30.291 0,-30.291M0,-31.733C9.279,-31.733 15.241,-24.425 15.241,-15.145C15.241,-5.866 9.279,1.442 0,1.442C-9.328,1.442 -15.242,-5.866 -15.242,-15.145C-15.242,-24.425 -9.328,-31.733 0,-31.733" style="fill:white;fill-rule:nonzero;"/>
        </g>
        <g transform="matrix(1,0,0,1,432.264,33.0363)">
            <path d="M0,25.34L29.32,25.34L14.727,-15.258L0,25.34ZM34.495,41.659L-5.042,41.659L-10.614,56.917L-31.312,56.917L2.918,-31.577L26.534,-31.577L60.632,56.917L40.067,56.917L34.495,41.659Z" style="fill:white;fill-rule:nonzero;"/>
        </g>
        <g transform="matrix(0,1,1,0,418.271,41.302)">
            <path d="M-22.226,-41.066L48.651,-41.066L48.651,-22.226L-29.811,-22.226C-27.113,-28.427 -24.6,-34.716 -22.226,-41.066" style="fill:white;fill-rule:nonzero;"/>
        </g>
        <g transform="matrix(0,-1,-1,0,386.089,-1.0565)">
            <path d="M-8.885,-9.955L-2.516,-9.955L-2.516,8.885L-16.324,8.885C-13.999,2.538 -11.524,-3.747 -8.885,-9.955" style="fill:white;fill-rule:nonzero;"/>
        </g>
        <g transform="matrix(0,-1,-1,0,347.771,-2.7437)">
            <path d="M-22.997,-15.102L-4.204,-15.102L-4.204,11.433L-33.895,22.997C-30.705,10.187 -27.117,-2.553 -22.997,-15.102" style="fill:white;fill-rule:nonzero;"/>
        </g>
        <g transform="matrix(1,0,0,1,285.789,4.872)">
            <path d="M0,34.83L0,21.397L4.89,33.882C10.187,32.825 15.488,31.719 20.789,30.551L7.562,-3.413L-18.84,-3.413L-18.84,38.243C-12.542,37.181 -6.262,36.04 0,34.83" style="fill:white;fill-rule:nonzero;"/>
        </g>
        <g transform="matrix(0,1,1,0,380.382,47.5699)">
            <path d="M-17.51,-36.483L42.384,-36.483L42.384,-17.51L-23.411,-17.51C-21.311,-23.79 -19.356,-30.121 -17.51,-36.483" style="fill:white;fill-rule:nonzero;"/>
        </g>
        <g transform="matrix(0,1,1,0,295.876,57.5332)">
            <path d="M-10.088,-28.928L32.421,-28.928L32.421,-10.088L-13.581,-10.088C-12.347,-16.35 -11.174,-22.628 -10.088,-28.928" style="fill:white;fill-rule:nonzero;"/>
        </g>
        <g transform="matrix(1,0,0,1,323.002,84.7945)">
            <path d="M0,-49.092L-8.158,-28.143L-14.935,-45.545C-20.222,-44.349 -25.51,-43.213 -30.792,-42.13L-12.271,5.159L-4.045,5.159L19.224,-54.251C12.842,-52.422 6.431,-50.7 0,-49.092" style="fill:white;fill-rule:nonzero;"/>
        </g>
        <g transform="matrix(1,0,0,1,208.069,0.1319)">
            <path d="M0,50.556C13.927,49.341 27.819,47.708 41.646,45.696C34.895,40.004 24.824,37.66 16.157,35.69C5.941,33.302 -1.489,31.445 -1.489,25.474C-1.489,20.167 3.022,16.452 11.513,16.452C20.137,16.452 29.69,19.504 36.854,26.138L47.335,12.339C38.579,4.246 26.904,0 12.84,0C-7.99,0 -20.727,11.941 -20.727,26.668C-20.727,41.036 -10.914,47.062 0,50.556" style="fill:white;fill-rule:nonzero;"/>
        </g>
        <g transform="matrix(1,0,0,1,220.749,87.2515)">
            <path d="M0,-33.298C10.028,-30.941 17.54,-28.661 17.54,-22.109C17.54,-17.067 12.499,-12.157 2.15,-12.157C-10.056,-12.157 -19.742,-17.597 -25.978,-24.099L-36.326,-9.77C-27.967,-1.411 -15.761,4.294 1.221,4.294C25.103,4.294 36.646,-7.912 36.646,-24.099C36.646,-29.749 35.102,-34.13 32.563,-37.592C21.748,-35.924 10.889,-34.488 0,-33.298" style="fill:white;fill-rule:nonzero;"/>
        </g>
        <g transform="matrix(1,0,0,1,107.814,1.4293)">
            <path d="M0,50.281C-0.315,48.372 -0.478,46.388 -0.478,44.344C-0.478,27.759 10.004,15.287 26.323,15.287C42.642,15.287 53.256,27.759 53.256,44.344C53.256,46.903 52.998,49.37 52.503,51.71C59.063,51.611 65.625,51.412 72.183,51.114C72.47,48.918 72.626,46.661 72.626,44.344C72.626,17.676 53.124,-1.429 26.323,-1.429C-0.345,-1.429 -19.848,17.676 -19.848,44.344C-19.848,45.758 -19.782,47.145 -19.674,48.515C-13.117,49.223 -6.554,49.817 0,50.281" style="fill:white;fill-rule:nonzero;"/>
        </g>
        <g transform="matrix(1,0,0,1,158.898,88.7211)">
            <path d="M0,-30.794C-3.892,-20.683 -12.788,-13.893 -24.761,-13.893C-37.189,-13.893 -46.226,-21.208 -49.831,-31.961C-56.565,-32.395 -63.326,-32.94 -70.09,-33.618C-66.099,-11.937 -48.2,2.824 -24.761,2.824C-1.993,2.824 15.5,-10.968 20.251,-31.468C13.503,-31.141 6.751,-30.909 0,-30.794" style="fill:white;fill-rule:nonzero;"/>
        </g>
        <g transform="matrix(1,0,0,1,20.5229,0.0001)">
            <path d="M0,36.989C3.301,24.91 13.373,16.717 25.914,16.717C35.731,16.717 43.692,22.422 47.407,29.586L63.593,21.626C57.357,10.614 46.08,0 25.914,0C5.061,0 -12.336,12.072 -18.304,30.995C-12.272,33.187 -6.169,35.186 0,36.989" style="fill:white;fill-rule:nonzero;"/>
        </g>
        <g transform="matrix(1,0,0,1,46.4365,53.0875)">
            <path d="M0,21.741C-15.39,21.741 -27.066,9.402 -27.066,-7.315C-27.066,-8.467 -27.005,-9.596 -26.897,-10.704C-33.192,-12.507 -39.423,-14.501 -45.566,-16.717C-46.133,-13.717 -46.437,-10.58 -46.437,-7.315C-46.437,19.884 -25.872,38.458 0,38.458C20.167,38.458 31.312,27.712 37.68,16.699L21.493,8.872C17.778,16.169 9.818,21.741 0,21.741" style="fill:white;fill-rule:nonzero;"/>
        </g>
    </g>
</svg>
